<?xml version="1.0" ?>
<svg baseProfile="tiny" id="Layer_1" version="1.2" viewBox="0 0 512 512" xml:space="preserve" xmlns="http://www.w3.org/2000/svg" xmlns:xlink="http://www.w3.org/1999/xlink">
    <g>
        <path d="M344.5,296.8c0,0,0.6,98.1,72.6,119.2c0,0-180.7,23.3-210,23.3l-49.4-44.4l-40.1,6.1   c0,0,44.2-55.8,52.4-125L344.5,296.8z" fill="#301D18" id="XMLID_12_" />
        <path d="M269.6,401h-27.1c-23,0-41.7-18.7-41.7-41.7v-60.4c0-23,18.7-41.7,41.7-41.7h27.1   c23,0,41.7,18.7,41.7,41.7v60.4C311.3,382.3,292.6,401,269.6,401z" fill="#EDBB98" id="XMLID_11_" />
        <path d="M311.3,358.3v1c0,23-18.7,41.7-41.7,41.7h-27.1c-23,0-41.7-18.7-41.7-41.7v-1   c-86.9,18.8-154.5,76.6-172.7,147.3c-0.3,1,115.1,0,227.9,0c112.9,0,228.2,1,227.9,0C465.8,434.9,398.2,377.1,311.3,358.3z" fill="#EDBB98" id="XMLID_10_" />
        <path d="M268.6,422.7" fill="#110102" id="XMLID_9_" />
        <path d="M259.2,426.9" fill="#110102" id="XMLID_8_" />
        <path d="M417.1,199.5C413.7,24.1,289.6,7.3,256.7,6l-0.1,0l-0.1,0c-0.1,0-0.1,0-0.2,0   c-0.1,0-0.1,0-0.2,0l-0.1,0L256,6c-32.9,1.3-157.1,18-160.4,193.5c0,0,0.4,21.3,8.2,27.7C136.4,254,228,300.8,254,241.5l-6.9,86.3   l8.9-0.2l0.3,0l0.3,0l8.9,0.2l33.6-104C331.4,297.3,417.1,199.5,417.1,199.5z" fill="#3F2820" id="XMLID_7_" />
        <ellipse cx="387.2" cy="202.2" fill="#F4C5A2" id="XMLID_6_" rx="29.6" ry="41" transform="matrix(0.9772 0.2124 -0.2124 0.9772 51.7787 -77.639)" />
        <ellipse cx="256.3" cy="196.9" fill="#F4C5A2" id="XMLID_5_" rx="127.4" ry="148.6" />
        <path d="M295.9,48.4c0,0-27.6,16.3-41,44.8c0,0-42.9,61.9-99.9,72.1c0,0-47.2,20.8-51.2,62   c0,0-9.6-8.7-7.3-46.7l55-116.6l109.7-27.8L295.9,48.4z" fill="#3F2820" id="XMLID_4_" />
        <path d="M274.6,65.6c0,0,4.3,17.7,44,29.9c0,0,58.4,49.4,47.8,101.4c0,0,14.8-34.4,25.3-58.3   L324.4,36.1l-62.2-11.6L274.6,65.6z" fill="#3F2820" id="XMLID_3_" />
        <path d="M292.4,439.2l-152.6-60C83.4,406.6,42,452.2,28.2,505l2.1,0.7c9.1,0.4,45.1,0.3,93,0.1   L292.4,439.2z" fill="#ED1E79" id="XMLID_2_" />
        <path d="M483.9,505.6c-12.6-49.1-49.2-92-99.5-120L32.1,492.1c-1.6,4.4-2.9,8.9-4.1,13.4   c-0.3,1,115.1,0,227.9,0C368.9,505.6,484.2,506.6,483.9,505.6z" fill="#2E3192" id="XMLID_1_" />
    </g>
</svg>